<?xml version="1.0" encoding="UTF-8"?> <svg xmlns="http://www.w3.org/2000/svg" width="110" height="34" viewBox="0 0 110 34" fill="none"><path d="M0 25.3057L9.59046 8.69437L14.5191 17.2309L4.87074 33.9364L0 33.9383V25.3057ZM26.5384 29.7111H22.2081L17.2675 21.1538H21.5982L11.9977 4.52537L14.6032 0H19.2165L33.7983 25.2452V0C35.3706 0 50.6832 0 50.8025 0.000646758C50.851 0.000970137 67.7399 0.0164919 67.7399 16.9709C67.7399 33.9251 50.851 33.9244 50.8025 33.9251L50.7692 33.9419C43.4997 33.9419 36.2385 33.9361 28.9757 33.9344L26.5384 29.7111ZM67.6923 25.3846L90.9281 25.3943C92.0709 25.3943 92.9958 24.4695 92.9958 23.3266C92.9958 22.1848 92.0703 21.2589 90.9281 21.2589L78.2503 21.2492C75.3244 21.2441 72.6756 20.056 70.757 18.137C68.8342 16.2142 67.6448 13.558 67.6448 10.6246C67.6448 7.69125 68.8342 5.03501 70.757 3.1122C72.6795 1.18939 75.3357 0 78.2691 0H90.3751L95.3157 8.55694H78.2694C77.1266 8.55694 76.2017 9.4818 76.2017 10.6243C76.2017 11.7671 77.1266 12.692 78.2694 12.692L90.9284 12.7017C96.7961 12.7017 101.553 17.4586 101.553 23.3263C101.553 26.2597 100.364 28.9159 98.4408 30.8387C96.518 32.7615 93.8618 33.9509 90.9284 33.9509C83.1835 33.9509 75.4379 33.9412 67.6926 33.9412L67.6923 25.3846ZM95.1892 0H110V8.55694H100.13L95.1892 0ZM103.207 12.0294C103.207 11.8567 103.22 11.6914 103.244 11.534C103.268 11.3778 103.305 11.2313 103.354 11.0942C103.402 10.9577 103.459 10.8326 103.526 10.7187C103.592 10.6039 103.67 10.4995 103.757 10.405C103.842 10.3129 103.934 10.2324 104.031 10.1625C104.127 10.0927 104.231 10.0345 104.341 9.98724C104.448 9.94197 104.559 9.90737 104.673 9.88408C104.788 9.8608 104.905 9.84883 105.021 9.84883C105.135 9.84883 105.25 9.85983 105.362 9.8815C105.475 9.90316 105.584 9.93485 105.69 9.97689C105.801 10.0212 105.904 10.0775 106.001 10.1454C106.096 10.2123 106.187 10.2928 106.271 10.3856C106.356 10.4788 106.432 10.5858 106.499 10.7068C106.564 10.8254 106.621 10.9574 106.669 11.1023C106.718 11.2471 106.754 11.4027 106.778 11.5676C106.802 11.7335 106.814 11.9088 106.814 12.0928C106.814 12.151 106.81 12.238 106.801 12.3531L106.779 12.6034H109.611V13.5234H104.104L103.499 13.5221L103.208 13.5211C103.207 12.0294 103.207 12.0792 103.207 12.0294ZM104.338 28.6339C104.218 28.7355 104.091 28.9098 103.978 29.0977C103.824 29.3522 103.7 29.6267 103.649 29.7871C103.604 29.9274 103.57 30.0649 103.547 30.1978C103.524 30.3271 103.513 30.4523 103.513 30.5729C103.513 30.7395 103.53 30.8995 103.564 31.0522C103.599 31.2064 103.651 31.3555 103.721 31.5C103.79 31.6459 103.874 31.7807 103.971 31.9043C104.069 32.0297 104.182 32.1452 104.309 32.2506C104.437 32.3563 104.578 32.4508 104.731 32.5329C104.884 32.6157 105.052 32.6872 105.233 32.747C105.414 32.8068 105.603 32.8514 105.8 32.8815C105.997 32.9116 106.203 32.9268 106.418 32.9268C106.626 32.9268 106.825 32.9126 107.017 32.8838C107.208 32.8553 107.391 32.812 107.567 32.7544C107.742 32.6962 107.905 32.6257 108.056 32.5426C108.206 32.4598 108.344 32.3635 108.471 32.2542C108.598 32.1455 108.71 32.0281 108.805 31.903C108.901 31.7775 108.982 31.6436 109.047 31.5026C109.111 31.359 109.16 31.2083 109.192 31.0505C109.224 30.8934 109.24 30.7259 109.24 30.5493C109.24 30.4009 109.226 30.2469 109.196 30.0875C109.166 29.9255 109.121 29.7544 109.06 29.5743C109 29.3981 108.921 29.2319 108.823 29.0753C108.724 28.9182 108.605 28.7678 108.465 28.6252L108.222 28.3778H108.876L108.92 28.4347C109.066 28.6239 109.193 28.8043 109.299 28.9761C109.407 29.1494 109.496 29.3163 109.565 29.4754C109.637 29.64 109.691 29.823 109.725 30.0238C109.76 30.223 109.778 30.4406 109.778 30.6767C109.778 30.9267 109.755 31.1663 109.709 31.3959C109.663 31.6258 109.594 31.8454 109.502 32.0543C109.41 32.2613 109.302 32.453 109.178 32.6286C109.054 32.8039 108.914 32.964 108.756 33.1082C108.6 33.2515 108.434 33.3779 108.258 33.4872C108.082 33.5959 107.896 33.6874 107.7 33.7608C107.507 33.8345 107.309 33.8898 107.107 33.927C106.905 33.9645 106.701 33.9833 106.496 33.9833C106.187 33.9833 105.888 33.9448 105.599 33.8678C105.311 33.7915 105.033 33.6761 104.766 33.5224C104.5 33.3695 104.262 33.1894 104.052 32.9827C103.841 32.7751 103.658 32.5403 103.502 32.2794C103.347 32.0184 103.231 31.7448 103.153 31.4593C103.075 31.1731 103.035 30.8775 103.035 30.5732C103.035 30.279 103.064 29.984 103.187 29.638C103.308 29.2988 103.522 28.9133 103.894 28.4347L103.938 28.3778H104.643L104.338 28.6339ZM106.419 20.5472C107.016 20.5472 107.573 20.6956 108.089 20.9922C108.347 21.1403 108.579 21.3155 108.783 21.5167C108.988 21.7181 109.166 21.9471 109.319 22.2035C109.472 22.46 109.587 22.73 109.663 23.0133C109.74 23.2972 109.778 23.5944 109.778 23.9042C109.778 24.215 109.74 24.5134 109.663 24.7999C109.587 25.0861 109.473 25.3597 109.32 25.6207C109.167 25.88 108.988 26.1125 108.783 26.3172C108.577 26.5223 108.345 26.6995 108.088 26.8489C107.828 26.9986 107.557 27.1108 107.276 27.1855C106.994 27.2605 106.701 27.2977 106.397 27.2977C106.165 27.2977 105.938 27.2754 105.716 27.2305C105.494 27.1855 105.281 27.1189 105.076 27.0306C104.871 26.942 104.678 26.835 104.497 26.7098C104.317 26.5853 104.151 26.443 103.998 26.2836C103.845 26.1242 103.709 25.9531 103.591 25.7711C103.473 25.59 103.372 25.3969 103.288 25.1919C103.204 24.9859 103.141 24.7767 103.099 24.5648C103.057 24.3508 103.036 24.1331 103.036 23.9119C103.036 23.6956 103.056 23.4819 103.096 23.271C103.136 23.0618 103.196 22.8564 103.276 22.6543C103.357 22.4522 103.456 22.2608 103.572 22.0803C103.688 21.9012 103.821 21.732 103.972 21.5736C104.124 21.4138 104.29 21.2709 104.471 21.1445C104.651 21.0187 104.845 20.91 105.052 20.8195C105.261 20.728 105.479 20.6594 105.708 20.6141C105.935 20.5698 106.172 20.5472 106.419 20.5472ZM106.436 21.5694C106.038 21.5694 105.686 21.604 105.381 21.6732C105.078 21.7418 104.819 21.8436 104.603 21.9785C104.384 22.1159 104.201 22.2627 104.057 22.4192C103.915 22.5725 103.808 22.7352 103.737 22.9069C103.661 23.0886 103.605 23.2632 103.568 23.4304C103.531 23.5957 103.513 23.757 103.513 23.9142C103.513 24.0377 103.523 24.1616 103.543 24.2854C103.562 24.4106 103.593 24.5403 103.633 24.6745C103.672 24.8009 103.727 24.927 103.8 25.0528C103.873 25.1802 103.962 25.306 104.067 25.4292C104.17 25.5495 104.296 25.6601 104.444 25.7604C104.593 25.8622 104.765 25.9534 104.959 26.034C105.152 26.1138 105.369 26.1743 105.61 26.2151C105.852 26.2558 106.119 26.2762 106.411 26.2762C106.667 26.2762 106.906 26.2594 107.127 26.2257C107.349 26.1921 107.553 26.142 107.738 26.0757C107.926 26.0078 108.095 25.9292 108.246 25.8386C108.394 25.7494 108.527 25.6472 108.643 25.5321C108.76 25.416 108.861 25.2947 108.944 25.1689C109.027 25.0434 109.094 24.9122 109.144 24.775C109.196 24.6344 109.236 24.4921 109.261 24.3488C109.287 24.2065 109.299 24.0588 109.299 23.9055C109.299 23.7713 109.287 23.6364 109.264 23.5013C109.24 23.3645 109.204 23.2261 109.156 23.087C109.108 22.9502 109.047 22.8202 108.97 22.697C108.893 22.5725 108.801 22.4529 108.693 22.3387C108.588 22.2268 108.462 22.1246 108.317 22.0328C108.169 21.9387 108.002 21.8562 107.818 21.7854C107.63 21.7133 107.423 21.6593 107.194 21.6234C106.966 21.5872 106.713 21.5694 106.436 21.5694ZM103.205 19.2336V17.8586C103.205 17.4987 103.261 17.1899 103.375 16.9344C103.432 16.8067 103.497 16.6928 103.569 16.5939C103.643 16.492 103.726 16.4037 103.817 16.329C103.905 16.2576 103.995 16.1964 104.087 16.146C104.181 16.0943 104.278 16.0525 104.378 16.0212C104.474 15.9911 104.57 15.9681 104.665 15.9529C104.763 15.9374 104.859 15.9293 104.952 15.9293C105.073 15.9293 105.191 15.9423 105.307 15.9675C105.424 15.9927 105.537 16.0309 105.648 16.0813C105.762 16.1337 105.867 16.199 105.964 16.2779C106.06 16.3565 106.149 16.4484 106.229 16.5535C106.31 16.6595 106.377 16.7785 106.432 16.9105C106.446 16.9441 106.459 16.9787 106.471 17.0143C106.543 16.9169 106.627 16.8219 106.724 16.7294C106.908 16.5525 107.136 16.3837 107.408 16.2233L108.342 15.6722C108.547 15.55 108.713 15.4407 108.839 15.3447C108.96 15.2531 109.044 15.1752 109.091 15.1112C109.139 15.0449 109.177 14.9802 109.203 14.9165C109.229 14.8551 109.245 14.7949 109.25 14.7364L109.263 14.6044H109.607V15.9348C109.47 16.0386 109.318 16.1418 109.187 16.2475C109.159 16.2669 109.117 16.2935 109.065 16.3268C109.001 16.3678 108.937 16.4089 108.875 16.4513L108.863 16.4626C108.63 16.6039 107.785 17.0696 107.64 17.2038C107.52 17.2746 107.413 17.3454 107.319 17.4162C107.225 17.487 107.141 17.5592 107.068 17.6319C106.995 17.7053 106.933 17.7752 106.883 17.8402C106.834 17.9045 106.794 17.9657 106.766 18.0229C106.736 18.0827 106.711 18.1412 106.692 18.1972C106.675 18.2483 106.662 18.2955 106.656 18.3382L106.656 18.3398C106.648 18.3873 106.642 18.441 106.638 18.4999L106.636 18.5468H109.607L109.607 19.3128L109.617 19.4671H103.205V19.2336ZM106.18 18.5474V18.3443C106.18 18.1697 106.168 18.0116 106.143 17.8709C106.118 17.7325 106.083 17.6106 106.036 17.5058C105.988 17.4017 105.932 17.3127 105.868 17.2393C105.804 17.1676 105.731 17.1093 105.649 17.0654C105.563 17.0198 105.467 16.9848 105.361 16.9616C105.252 16.938 105.133 16.926 105.002 16.926C104.892 16.926 104.785 16.9367 104.68 16.958C104.575 16.9797 104.47 17.0123 104.367 17.0557C104.267 17.0974 104.176 17.153 104.093 17.2225C104.008 17.2946 103.931 17.3813 103.863 17.4822C103.795 17.5808 103.745 17.6976 103.71 17.8327C103.675 17.9721 103.657 18.1322 103.657 18.312C103.657 18.3877 103.66 18.4533 103.665 18.5083L103.67 18.5474H106.18ZM103.692 12.6034H106.325C106.335 12.541 106.342 12.4789 106.348 12.4168C106.356 12.3207 106.361 12.2211 106.361 12.1186C106.361 11.9353 106.338 11.7668 106.291 11.6129C106.246 11.4615 106.177 11.3231 106.085 11.1986C106 11.0848 105.878 10.9988 105.717 10.9402C105.545 10.8778 105.329 10.8465 105.07 10.8465C104.858 10.8465 104.666 10.8743 104.495 10.9296C104.327 10.9839 104.177 11.066 104.045 11.1753C103.918 11.2808 103.822 11.4137 103.759 11.5737C103.693 11.739 103.66 11.9359 103.66 12.1642C103.66 12.2596 103.664 12.3518 103.673 12.4404C103.677 12.4928 103.684 12.5471 103.692 12.6034ZM42.3556 8.55694V25.3843L50.7692 25.4008C51.3381 25.3908 59.1829 25.1068 59.1829 16.9706C59.1829 8.83407 51.3381 8.55047 50.7692 8.54077L42.3556 8.55694Z" fill="#FF7B28"></path></svg> 